<?xml version="1.0" encoding="utf-8"?>
<!-- Generator: Adobe Illustrator 16.0.0, SVG Export Plug-In . SVG Version: 6.00 Build 0)  -->
<!DOCTYPE svg PUBLIC "-//W3C//DTD SVG 1.1//EN" "http://www.w3.org/Graphics/SVG/1.1/DTD/svg11.dtd">
<svg version="1.1" id="Layer_1" xmlns="http://www.w3.org/2000/svg" xmlns:xlink="http://www.w3.org/1999/xlink" x="0px" y="0px"
	 width="726.961px" height="251.76px" viewBox="0 0 726.961 251.76" enable-background="new 0 0 726.961 251.76"
	 xml:space="preserve">
<g id="svg61" xmlns:dc="http://purl.org/dc/elements/1.1/" xmlns:rdf="http://www.w3.org/1999/02/22-rdf-syntax-ns#" xmlns:cc="http://creativecommons.org/ns#" xmlns:inkscape="http://www.inkscape.org/namespaces/inkscape" xmlns:sodipodi="http://sodipodi.sourceforge.net/DTD/sodipodi-0.dtd" xmlns:svg="http://www.w3.org/2000/svg" sodipodi:docname="robotics_club_spanner.svg" inkscape:version="0.92.2 5c3e80d, 2017-08-06">
	<g>
		<polygon fill="none" points="79.352,211.289 76.024,213.107 72.229,213.109 70.264,216.338 66.982,218.244 66.885,222.028 
			64.993,225.313 66.813,228.641 66.815,232.436 70.048,234.414 71.939,237.687 75.734,237.781 79.019,239.672 82.349,237.863 
			86.132,237.852 88.108,234.619 91.392,232.726 91.488,228.929 93.379,225.645 91.558,222.317 91.559,218.533 88.326,216.557 
			86.421,213.275 82.639,213.189 		"/>
		<path fill="#E64626" d="M77.594,202.924c-3.126-1.026-2.379-3.928-5.735-3.468c-3.938,0.538-5.871-0.829-5.871-3.951
			c0-8.581,1.048-10.145,7.25-16.875c2.7-2.93,2.333-3.583,1.083-5.833c-1.159-2.087-1.428-1.192-3.214-3.87
			c-0.456-0.684-1.106-2.13-0.87-4.796c0.498-2.026,0.929-2.674-1.305-4.167c-5.291-1-1.878-3.682,0-5.083
			c1.084-0.429,2.021-0.828,2.898-1.178l-5.644-22.023l-4.639-18.103l-2.14-8.348l-6.012-23.463l-4.534-17.695
			c-0.816-2.342-0.704-5.563,2.993-12.236c3.438-6.155,4.749-11.775,3.515-16.759c-0.648-2.61-1.994-5.05-4.104-7.294
			c-4.92-3.638-8.186-8.553-18.858-10.094l8.693,17.788c-2.924,7.909-9.791,12.594-19.926,11.042L10.348,28.656
			c-2.739,6.546-2.107,12.927-0.911,19.283c2.553,9.238,10.352,13.22,12.394,14.439c2.984,2.337,6.06,4.604,7.759,8.045
			l3.967,15.206l9.112,34.931l21.412,82.081c1.295,4.471,0.32,8.772-0.53,13.079c-2.269,3.945-3.075,8.756-1.876,13.537
			c2.442,9.746,12.26,15.679,21.926,13.256c9.667-2.424,15.525-12.284,13.083-22.03c-1.27-5.067-4.538-9.106-8.74-11.473
			c-0.757-1.144-1.514-2.338-2.271-3.917C83.467,205.306,81.837,204.316,77.594,202.924z M88.326,216.557l3.233,1.977l-0.001,3.784
			l1.82,3.327l-1.891,3.284l-0.096,3.797l-3.284,1.894l-1.977,3.232l-3.782,0.012l-3.33,1.809l-3.285-1.891l-3.795-0.095
			l-1.892-3.272l-3.232-1.979l-0.002-3.795l-1.82-3.327l1.892-3.285l0.098-3.784l3.282-1.906l1.965-3.229l3.795-0.002l3.328-1.818
			l3.287,1.9l3.781,0.086L88.326,216.557z"/>
	</g>
	<text transform="matrix(1 0 0 1 121.6316 239.3213)" fill="#E64626" font-family="'Bauhaus93'" font-size="38">USyd Robotics Club</text>
	<path fill="#E64626" d="M119.583,191.156l-4.065-7.062c-0.962,0.481-2.042,0.76-3.189,0.76c-3.945,0-7.144-3.197-7.144-7.143
		c0-2.496,1.283-4.689,3.224-5.967l-3.136-5.444c-2.813,0.123-4.604-0.748-7.143-2.735c-5.487-4.295-8.438-5.871-13.348-7.129
		c-4.765-1.221-8.577-0.766-11.502,1.373c-1.334,0.976-1.309,1.068,0.624,2.336c1.587,1.039,1.918,1.697,1.564,3.107
		c-0.642,2.559,2.139,7.857,5.569,10.613c1.571,1.264,2.857,2.564,2.857,2.894s-1.282,1.251-2.849,2.05
		c-5.767,2.941-10.371,10.063-10.371,16.034c0,2.173,0.077,2.222,2.874,1.847c2.384-0.319,3.226-0.061,4.923,1.514
		c3.646,3.38,7.748,3.373,14.493-0.025c1.96-0.988,3.978-1.638,4.483-1.443c0.507,0.195,1.108,1.513,1.339,2.93
		c0.884,5.443,4.457,8.4,11.141,9.219c3.067,0.375,3.852,0.787,4.643,2.438c0.779,1.627,1.244,1.88,2.559,1.394
		c0.883-0.326,2.272-1.488,3.089-2.581c1.857-2.487,1.885-8.463,0.066-14.603C119.677,193.476,119.374,192.171,119.583,191.156z"/>
	<g>
		<path fill="#E64626" d="M93.568,135.213c-0.434,0-0.856-0.044-1.271-0.108l-1.827,6.071c2.391,0.431,4.855,1.265,7.339,2.524
			c2.561,1.298,6.14,2.773,7.957,3.281c5.032,1.404,13.698,1.246,19.994-0.363c5.805-1.484,14.062-5.301,19.663-9.09
			c6.158-4.164,13.954-11.104,13.954-12.421c0-1.584-0.778-1.613-5.441-0.198c-7.797,2.365-16.922,1.055-28.287-4.062
			c-3.7-1.666-12.003-4.283-19.897-6.271c-2.362-0.595-4.606-1.185-6.748-1.77l-2.097,6.968c2.798,1.271,4.745,4.083,4.745,7.355
			C101.651,131.595,98.032,135.213,93.568,135.213z"/>
		<path fill="#E64626" d="M65.975,97.138c-0.3-1.389-0.416-3.654-0.62-7.972c-0.495-10.456-1.926-14.507-6.436-18.224
			c-0.341-0.281-0.744-0.57-1.183-0.857l7.219,28.177L65.975,97.138z"/>
		<path fill="#E64626" d="M18.552,82.46c-2.866,2.109-2.983,2.841-0.551,3.452c1.521,0.382,1.836,0.901,1.836,3.041
			c0,3.873,1.702,7.202,5.063,9.902c3.288,2.643,3.787,4.493,1.62,6.01c-0.768,0.538-2.102,2.174-2.965,3.637
			c-1.166,1.977-2.222,2.782-4.112,3.137c-3.155,0.592-3.185,1.217-0.155,3.52c5.606,4.262,10.588,5.612,16.115,4.121L25.014,79.456
			C22.739,79.988,20.573,80.974,18.552,82.46z"/>
		<path fill="#E64626" d="M69.025,114.139l7.675,29.948c3.268-2.402,7.177-3.479,11.401-3.2l1.951-6.487
			c-2.701-1.307-4.569-4.066-4.569-7.271c0-4.464,3.619-8.083,8.083-8.083c0.367,0,0.727,0.033,1.081,0.081l2.091-6.954
			c-14.305-4.044-23.479-7.932-28.772-12.159c-0.631-0.504-1.077-0.875-1.406-1.369l-1.174,1.293l0.026,0.103L69.025,114.139z"/>
		<path fill="#E64626" d="M93.889,81.204c0.218,0,1.166-0.723,2.105-1.606c1.034-0.972,1.96-1.334,2.343-0.918
			c0.348,0.378,1.508,3.786,2.577,7.573c2.104,7.444,5.442,15.925,7.773,19.737c2.025,3.312,3.818,3.038,8.391-1.285
			c2.135-2.02,4.4-3.672,5.037-3.672c0.635,0,1.859,1.143,2.724,2.539c3.041,4.921,9.718,9.126,17.478,11.007
			c5.693,1.38,5.615,1.396,3.894-0.793c-0.837-1.064-1.522-2.688-1.522-3.608c0-1.111-1.017-2.422-3.023-3.898
			c-4.327-3.183-6.053-6.118-8.707-14.821c-1.289-4.226-3.652-10.553-5.251-14.06c-4.378-9.602-4.911-14.637-2.687-25.359
			c0.793-3.82,0.789-3.834-1.919-6.832c-3.365-3.725-4.121-5.661-4.101-10.502c0.037-8.821,7.137-15.948,15.857-15.918
			c5.27,0.018,17.908,9.099,17.908,12.866c0,1.912-1.759,4.018-3.354,4.018c-1.578,0-6.771,4.983-8.801,8.443
			c-2.648,4.522-4.691,11.02-5.208,16.57c-0.432,4.65-0.297,5.256,2.546,11.43c4.104,8.921,6.738,16.096,6.738,18.358
			c0,4.089,4.483,8.358,8.777,8.358c3.804,0,8.887-4.599,6.546-5.922c-3.274-1.852-7.413-5.395-8.122-6.952
			c-0.583-1.278-0.627-3.857-0.151-8.77l0.675-6.959l-1.924-0.422c-2.421-0.532-5.541-3.764-6.196-6.419
			c-0.275-1.116-0.912-2.272-1.414-2.57c-1.796-1.066-2.609-3.546-1.61-4.913c0.847-1.158,1.57-1.195,8.233-0.421
			c8.227,0.955,12.544,1.927,13.188,2.97c0.241,0.389-0.57,5.313-1.805,10.943c-1.233,5.629-2.243,10.342-2.243,10.473
			c-0.001,0.13,3.585,0.134,7.969,0.009l7.973-0.228l-2.102-10.389c-1.687-8.341-1.918-10.569-1.176-11.302
			c0.967-0.956,6.8-2.006,15.796-2.844l5.324-0.496v2.164c0,1.21-0.629,2.733-1.428,3.456c-0.784,0.71-1.627,2.202-1.871,3.315
			c-0.511,2.325-3.617,5.497-6.128,6.257c-1.691,0.512-1.709,0.619-1.193,7.487c0.626,8.354,0.169,9.508-5.329,13.445l-3.866,2.769
			l1.438,1.827c4.742,6.028,13.8,3.376,15.104-4.422c0.761-4.538,2.572-9.713,5.944-16.977c3.601-7.755,3.967-11.071,2.097-19.001
			c-2.071-8.789-6.693-16.085-11.737-18.526c-5.129-2.483-5.271-4.224-0.78-9.676c5.392-6.55,11.778-9.073,18.325-7.24
			c6.875,1.925,11.411,7.984,11.44,15.284c0.021,4.884-1.47,8.491-4.812,11.642l-2.614,2.466l1.235,6.054
			c1.818,8.923,1.2,15.622-2.09,22.601c-1.432,3.033-3.604,8.895-4.832,13.025c-1.228,4.13-2.615,8.258-3.085,9.173
			c-1.232,2.401-5.135,6.396-7.41,7.588c-1.188,0.623-2.148,1.894-2.443,3.234c-0.267,1.214-0.789,2.396-1.162,2.626
			c-1.604,0.991-0.553,1.973,1.709,1.598c7.336-1.216,16.007-6.642,18.587-11.631c0.604-1.166,1.619-2.119,2.261-2.119
			c0.64,0,2.971,1.653,5.181,3.672s4.63,3.672,5.378,3.672c0.747,0,2-0.909,2.782-2.02c2.691-3.82,7.294-15.687,9.682-24.97
			c0.902-3.508,1.409-3.761,3.316-1.653c0.73,0.808,1.582,1.469,1.89,1.469c0.309,0,1.332-2.231,2.273-4.958
			c1.438-4.163,1.712-6.429,1.712-14.137c0-11.109-1.666-17.141-6.976-25.246c-6.396-9.763-16.115-17.269-27.171-20.978
			c-3.209-1.077-6.033-2.156-6.274-2.398c-0.242-0.242,0.229-1.754,1.048-3.359c0.817-1.604,1.282-3.124,1.029-3.376
			c-1.442-1.443-15.96,0.323-24.305,2.957l-6.099,1.925l-1.98-1.773c-5.462-4.892-4.788-4.789-8.566-1.305l-3.393,3.126
			l-4.925-1.581c-7.081-2.272-10.755-2.962-18.763-3.525c-7.767-0.546-7.966-0.428-5.938,3.493c0.635,1.228,1.004,2.626,0.819,3.107
			c-0.186,0.481-2.274,1.478-4.645,2.215c-8.196,2.551-15.604,6.998-21.528,12.92c-6.252,6.252-9.541,11.375-12.347,19.23
			c-2.717,7.608-2.824,19.646-0.253,27.97C92.701,78.643,93.672,81.204,93.889,81.204z"/>
		<path fill="#E64626" d="M203.961,38.891c0.557-0.762,1.201-2.135,1.431-3.051c1.062-4.222-3.54-8.822-7.871-7.871
			c-3.211,0.706-3.32,1.684-0.521,4.646c1.396,1.479,3.307,3.807,4.244,5.174C202.863,40.151,202.999,40.207,203.961,38.891z"/>
		<path fill="#E64626" d="M343.003,58.348c-5.268,0.458-10.993,0.993-17.282,1.611c-0.829,0.082-1.639,0.16-2.438,0.238
			l0.134,12.925c6.732-0.803,13.088-1.391,19.771-1.825L343.003,58.348z"/>
		<path fill="#E64626" d="M358.218,31.948c-3.77-2.364-10.89-1.723-15.238,1.371c-3.832,2.726-10.464,5.206-15.525,5.805
			c-3.838,0.455-3.905,1.056-0.367,3.213c2.845,1.734,8.072,1.838,14.06,0.279c2.393-0.623,7.318-2.606,10.947-4.406
			s7.027-3.273,7.555-3.273C361.357,34.936,360.66,33.481,358.218,31.948z"/>
		<path fill="#E64626" d="M265.805,45.064c0.29-0.458,0.574-0.869,0.864-1.251l-11.623-7.32c-4.873,5.17-7.603,11.233-7.523,17.305
			l16.233-2.339C263.577,49.57,264.256,47.508,265.805,45.064z"/>
		<path fill="#E64626" d="M336.04,114V89.93c-2.652-0.02-5.313-0.043-7.977-0.068v26.236
			C330.682,115.207,333.323,114.508,336.04,114z"/>
		<path fill="#E64626" d="M428.93,180.11l-4.143-2.233c-1.254,1.674-3.247,2.763-5.499,2.763c-3.797,0-6.875-3.078-6.875-6.875
			c0-0.822,0.151-1.606,0.416-2.337l-3.854-2.079c-1.321,0.979-2.764,1.57-4.269,1.613c-1.134,0.032-3.523-0.648-5.312-1.515
			c-8.544-4.136-19.756-2.905-24.124,2.647c-2.01,2.557-1.815,3.592,0.771,4.107c1.222,0.245,2.428,1.029,2.68,1.745
			c0.956,2.704,3.462,4.563,7.316,5.426c2.167,0.483,3.939,1.242,3.939,1.683s-1.119,1.694-2.488,2.786
			c-3.531,2.818-5.59,7.47-5.59,12.63c0,3.102,0.245,4.133,0.918,3.854c4.954-2.056,6.229-2.125,10.398-0.564
			c7.157,2.679,11.506,1.729,15.972-3.487c1.428-1.67,2.92-3.033,3.315-3.033s1.521,0.857,2.5,1.904
			c3.434,3.676,8.362,5.02,11.756,3.203c1.188-0.636,1.802-0.361,3.604,1.61c1.194,1.31,2.367,2.185,2.605,1.944
			c0.846-0.846,2.524-8.342,2.519-11.233c-0.009-3.565-2.037-8.187-4.651-10.594C429.642,182.976,429.033,181.579,428.93,180.11z"/>
		<path fill="#E64626" d="M457.135,150.757c-3.003-1.681-4.729-4.119-4.729-6.684c0-1.408,0.308-2.75,0.682-2.981
			c1.755-1.085,6.664-9.569,6.664-11.519c0-2.717-2.036-3.57-8.522-3.57c-7.271,0-14.494-0.85-19.954-2.22l-3.067,3.731
			c1.711,1.795,2.768,4.219,2.768,6.894c0,5.522-4.479,10-10,10c-1.975,0-3.812-0.58-5.361-1.568l-2.535,3.085
			c0.654,0.624,1.126,1.452,1.569,2.514c2.656,6.357,0.059,15.479-4.497,19.908l3.312,1.786c1.214-1.946,3.367-3.243,5.829-3.243
			c3.798,0,6.875,3.076,6.875,6.875c0,1.028-0.231,2.002-0.638,2.877l3.48,1.877c0.438-2.557,2.314-5.1,5.317-6.523
			c1.702-0.809,4.515-1.191,8.72-1.191c5.252,0,6.591-0.259,8.701-1.683c3.315-2.233,3.286-4.267-0.074-5.125
			c-3.232-0.826-5.875-3.237-5.875-5.36c0-1.813,1.259-2.521,4.489-2.521C455.385,156.114,460.107,152.421,457.135,150.757z"/>
		<path fill="#E64626" d="M165.25,114.242c1.388,0.911,1.185,0.926,3.524-0.25c1.092-0.548,3.118-1.213,4.506-1.478
			c2.687-0.512,5.188-2.329,5.188-3.766c0-0.479-1.327-1.269-2.949-1.755c-1.622-0.488-4.061-1.862-5.421-3.055
			c-1.358-1.193-2.695-2.17-2.969-2.17c-0.274,0-1.717,0.964-3.208,2.143c-1.49,1.178-4.115,2.553-5.832,3.054
			s-3.121,1.347-3.121,1.88c0,1.278,2.604,2.896,6.242,3.88C162.827,113.162,164.645,113.845,165.25,114.242z"/>
		<path fill="#E64626" d="M301.032,75.394l0.9-13.328c-6.212,0.447-10.917,0.648-14.611,0.625l-3.626,12.878
			C289.145,75.709,295.281,75.65,301.032,75.394z"/>
		<path fill="#E64626" d="M306.271,128.196c6.916-5.161,13.155-8.802,19.444-11.244V89.838c-13.384-0.136-26.695-0.342-38.715-0.617
			c-12.953-0.297-25.732-0.582-33.806-0.756v58.084c0.439,0.007,0.878,0.017,1.318,0.017
			C273.813,146.565,288.768,141.258,306.271,128.196z"/>
		<path fill="#E64626" d="M251.234,88.422L251.234,88.422c-2.813-0.06-4.862-0.102-5.865-0.12l-6.912-0.122l-3.024,8.832
			c-3.405,9.941-5.188,13.283-9.507,17.809c-4.635,4.857-9.027,5.401-15.537,1.924c-2.207-1.179-2.285-1.157-6.495,1.792
			c-5.55,3.887-11.754,5.892-21.787,7.04l-8.14,0.932l-3.369,3.852c-3.498,3.998-9.465,8.8-16.486,13.563l4.6,5.609
			c1.559-1.004,3.41-1.594,5.4-1.594c5.523,0,10,4.478,10,10c0,2.701-1.074,5.146-2.813,6.944l4.166,5.081
			c2.121-2.748,5.245-4.943,9.311-6.455c2.392-0.89,7.104-3.078,10.475-4.865c12.218-6.478,15.31-10.42,14.451-18.434
			c-0.457-4.266-0.382-4.66,0.897-4.66c0.769,0,3.285,1.023,5.593,2.273c9.577,5.187,21.979,8.24,35.043,8.682V88.422z"/>
		<path fill="#E64626" d="M306.528,34.261c18.724,0.071,21.987-0.684,38.287-8.849c6.463-3.238,12.659-6.09,13.771-6.339
			c2.677-0.6,2.552-1.347-0.734-4.38c-4.823-4.454-8.523-5.831-15.605-5.806c-7.408,0.026-11.705,1.641-18.949,7.124
			c-5.478,4.145-6.756,4.382-6.756,1.256c0-1.676,0.908-3.216,3.571-6.059c3.687-3.934,5.651-6.952,4.973-7.632
			c-0.215-0.214-1.48,0.004-2.813,0.485s-4.296,1.151-6.583,1.489c-2.287,0.338-5.383,1.195-6.879,1.905
			c-3.201,1.519-6.612,5.937-7.844,10.157c-0.482,1.651-1.223,3.246-1.646,3.542c-0.424,0.297-2.588,0.546-4.81,0.554
			c-0.136,0-0.288,0.007-0.43,0.01l3.512,12.631C300.256,34.275,303.211,34.249,306.528,34.261z"/>
		<path fill="#E64626" d="M395.614,145.542c8.406-1.107,12.793-1.473,15.361-0.76l2.814-3.426c-1.74-1.799-2.816-4.246-2.816-6.948
			c0-5.523,4.478-10,10-10c2.002,0,3.862,0.594,5.426,1.607l2.409-2.931c-2.188-0.689-3.974-1.47-5.172-2.319
			c-4.45-3.155-2.868-8.755,3.462-14.296L413.48,89.382c-7.973,0.482-29.799,0.706-55.424,0.654v24.102
			c0.422,0.124,0.727,0.251,0.855,0.38c0.175,0.174,0.392,3.738,0.482,7.92c0.188,8.661,1.542,12.428,6.173,17.197
			C371.588,145.833,380.344,147.556,395.614,145.542z"/>
		<path fill="#E64626" d="M355.706,113.664V90.031c-2.356-0.006-4.743-0.015-7.15-0.025v23.033
			C351.096,113.136,353.721,113.366,355.706,113.664z"/>
		<path fill="#E64626" d="M295.175,34.434l-3.502-12.595c-4.926,0.375-11.73,1.533-16.364,2.794l6.188,11.452
			C285.188,35.187,289.477,34.676,295.175,34.434z"/>
		<path fill="#E64626" d="M420.973,83.001c0,0.335-0.021,0.644-0.047,0.944h0.001l21.034,3.929
			c0.466-3.636-0.028-7.417-1.643-10.883c-1.102-2.367-2.657-4.533-4.597-6.514l-16.063,8.63
			C420.532,80.286,420.973,81.583,420.973,83.001z"/>
		<path fill="#E64626" d="M346.206,112.989V89.994c-2.588-0.013-5.195-0.029-7.817-0.047v23.663c1.604-0.235,3.24-0.414,4.917-0.536
			C344.168,113.011,345.158,112.986,346.206,112.989z"/>
		<path fill="#E64626" d="M265.591,55.476c-0.483-0.575-0.873-1.152-1.168-1.739l-16.724,2.411c0.119,0.896,0.298,1.789,0.546,2.677
			c1.543,5.508,6.603,10.197,14.017,13.247l8.836-12.578C268.74,58.393,266.947,57.087,265.591,55.476z"/>
		<path fill="#E64626" d="M389.135,70.72l2.8-14.203c-6.681-0.355-13.873-0.364-22.677,0.018l-1.326,13.824
			C375.906,70.244,382.974,70.363,389.135,70.72z"/>
		<path fill="#E64626" d="M365.566,70.4l1.322-13.756c-6.252,0.31-13.308,0.805-21.54,1.502l0.187,13.006
			c5.688-0.334,11.667-0.564,18.375-0.72C364.471,70.419,365.013,70.411,365.566,70.4z"/>
		<path fill="#E64626" d="M273.326,60.41l-8.792,12.516c1.583,0.546,3.248,1.031,5.004,1.431c2.478,0.564,6.716,0.94,11.739,1.133
			l3.62-12.852c-2.803-0.11-4.945-0.383-6.746-0.809C276.343,61.401,274.756,60.928,273.326,60.41z"/>
		<path fill="#E64626" d="M329.848,170.522l-3.75-1.674c-1.495,2.252-4.053,3.738-6.959,3.738c-4.611,0-8.351-3.738-8.351-8.35
			c0-0.729,0.104-1.432,0.278-2.105l-3.517-1.57c-0.418,0.571-0.889,1.16-1.415,1.76c-3.961,4.5-13.854,9.07-19.846,9.658
			l1.791,2.582c0.812-0.438,1.74-0.688,2.729-0.688c3.179,0,5.756,2.577,5.756,5.756c0,1.728-0.764,3.271-1.967,4.326l2.066,2.979
			c0.436-0.4,0.985-0.75,1.667-1.037c2.72-1.144,4.075-0.813,11.578,2.813c5.629,2.724,8.591,3.229,11.085,1.894
			c1.912-1.022,1.791-2.636-0.303-4.006c-1.712-1.123-3.418-4.005-3.418-5.777c0-0.51,0.426-1.508,0.945-2.219
			c0.896-1.228,1.147-1.213,4.933,0.278c2.693,1.062,4.771,1.425,6.399,1.119c2.642-0.496,2.896-1.283,1.31-4.06
			C330.062,174.544,329.715,172.401,329.848,170.522z"/>
		<path fill="#E64626" d="M295.829,188.06l-2.321-3.347c-0.806,0.429-1.724,0.673-2.699,0.673c-3.179,0-5.756-2.576-5.756-5.756
			c0-1.714,0.753-3.249,1.943-4.304l-2.286-3.294c-0.568-0.021-1.1-0.079-1.537-0.213c-0.834-0.256-3.5-2.351-5.924-4.654
			c-5.46-5.193-9.802-7.014-15.358-6.439c-2.18,0.226-4.883,0.892-6.008,1.48l-2.045,1.07l2.342,1.211
			c2.117,1.096,2.342,1.535,2.342,4.582c0,2.271,0.646,4.557,1.98,7.009c2.168,3.983,1.779,4.964-1.98,5.001
			c-2.505,0.025-8.82,3.092-10.797,5.242c-2.119,2.305-3.892,6.625-3.892,9.484c0,2.174,0.111,2.262,2.271,1.786
			c1.973-0.434,2.543-0.174,4.326,1.962c1.781,2.133,2.48,2.45,5.256,2.389c2.031-0.047,4.899-0.935,7.851-2.428l4.647-2.354
			l3.17,2.922c4.479,4.129,9.002,5.278,14.397,3.663c2.683-0.805,2.881-0.741,4.759,1.49c2.382,2.83,3.37,2.294,5.941-3.223
			c2.106-4.52,2.139-5.926,0.201-9.102C295.49,191.003,295.227,189.354,295.829,188.06z"/>
		<path fill="#E64626" d="M420.282,86.216c-0.649,1.177-1.794,2.034-3.654,2.813c-0.072,0.03-0.199,0.06-0.354,0.089l12.641,15.86
			c1.196-0.919,2.515-1.831,3.965-2.722c4.442-2.732,7.433-7.169,8.644-12.073l-0.002,0L420.282,86.216z"/>
		<path fill="#E64626" d="M320.936,60.424c-6.459,0.618-11.948,1.105-16.637,1.466l-0.904,13.386
			c4.062-0.224,7.846-0.55,10.941-0.979c2.31-0.32,4.544-0.614,6.733-0.888L320.936,60.424z"/>
		<path fill="#E64626" d="M138.297,31.634c1.189-0.834,1.31-1.25,0.603-2.102c-1.333-1.607-4.465-2.131-6.844-1.146
			c-2.128,0.881-4.259,3.975-4.259,6.182c0,1.48,2.052,5.508,2.806,5.508c0.312,0,1.834-1.666,3.387-3.701
			C135.543,34.34,137.48,32.206,138.297,31.634z"/>
		<path fill="#E64626" d="M411.141,74.042c2.919,0.932,5.184,2.039,6.799,3.323l15.972-8.581c-4.118-3.527-9.667-6.351-16.564-8.399
			L411.141,74.042z"/>
		<path fill="#E64626" d="M273.333,39.056c1.913-0.935,3.805-1.703,5.838-2.331l-6.158-11.396c-0.001,0.001-0.003,0.001-0.005,0.002
			c-6.499,2.238-12.018,5.542-16.247,9.465l11.547,7.274C269.471,41.078,270.976,40.207,273.333,39.056z"/>
		<path fill="#E64626" d="M169.476,166.367c-1.551,0.989-3.389,1.571-5.366,1.571c-5.522,0-10-4.478-10-10
			c0-2.687,1.064-5.119,2.786-6.914l-4.748-5.791c-12.542,8.268-27.892,16.182-38.63,19.293c-2.843,0.824-5.001,1.375-6.762,1.639
			l2.831,4.917c0.8-0.31,1.666-0.485,2.575-0.485c3.944,0,7.142,3.196,7.142,7.142c0,2.254-1.046,4.261-2.678,5.569l3.666,6.366
			c0.761-0.729,2.02-1.429,3.945-2.405c4.854-2.457,7.604-2.287,12.406,0.773c3.635,2.314,7.803,3.32,8.961,2.162
			c0.235-0.235-0.04-1.547-0.61-2.914c-1.973-4.719-0.811-9.881,2.792-12.404c2.447-1.715,3.34-1.423,4.903,1.607
			c2.049,3.971,6.424,7.898,11.251,10.102c4.414,2.016,9.391,3.168,9.391,2.174c0-0.324-0.36-2.658-0.802-5.188
			c-0.762-4.371-0.187-8.268,1.595-11.546L169.476,166.367z"/>
		<path fill="#E64626" d="M408.86,73.383l6.191-13.625c-4.84-1.268-10.256-2.198-16.258-2.747c-1.486-0.136-2.98-0.253-4.493-0.354
			l-2.8,14.215C398.569,71.37,404.346,72.208,408.86,73.383z"/>
		<path fill="#E64626" d="M348.754,130.933c-1.021-5.188-2-5.843-7.424-4.959c-9.034,1.469-16.454,4.406-23.79,9.412
			c-6.604,4.509-18.26,14.076-18.26,14.99c0,0.449,2.094,1.39,4.649,2.089c2.558,0.7,4.972,1.596,5.365,1.988
			c0.737,0.738,0.526,2.242-0.47,4.107l3.148,1.406c1.458-2.439,4.117-4.076,7.165-4.076c4.611,0,8.35,3.736,8.35,8.35
			c0,0.867-0.132,1.703-0.377,2.488l3.256,1.455c0.049-0.115,0.087-0.244,0.144-0.35c1.278-2.391,3.739-3.17,11.733-3.723
			c4.241-0.293,8.872-0.885,10.291-1.313c3.951-1.196,10.59-5.423,10.878-6.926c0.167-0.866-1.454-3.116-4.574-6.349
			C353.475,143.968,350.093,137.729,348.754,130.933z"/>
		<polygon fill="#FFFFFF" points="407.997,82.504 408.111,82.646 408.251,82.572 408.309,82.256 		"/>
		<polygon fill="#FFFFFF" points="408.989,81.716 409.622,81.834 410.216,81.516 409.837,81.041 		"/>
		<polygon fill="#FFFFFF" points="420.926,83.945 413.306,82.522 410.005,84.296 412.856,84.829 420.281,86.216 420.282,86.216 
			441.521,90.182 441.523,90.183 454.969,92.693 455.404,90.385 441.962,87.874 441.961,87.874 420.927,83.945 		"/>
		<polygon fill="#FFFFFF" points="408.43,81.611 408.309,82.256 408.251,82.572 409.622,81.834 408.989,81.716 		"/>
		<polygon fill="#FFFFFF" points="406.217,84.878 411.14,74.042 417.346,60.385 425.984,41.376 423.847,40.403 415.052,59.758 
			408.86,73.383 404.078,83.904 		"/>
		<polygon fill="#FFFFFF" points="278.206,49.376 278.24,49.371 278.219,49.356 		"/>
	</g>
</g>
<g id="Robot_Additions">
	<circle fill="#E64626" cx="164.11" cy="157.938" r="8.095"/>
	<circle fill="#E64626" cx="93.567" cy="127.129" r="6.544"/>
	<circle fill="#E64626" cx="319.139" cy="164.238" r="6.759"/>
	<circle fill="#E64626" cx="420.973" cy="134.408" r="8.095"/>
	<circle fill="#E64626" cx="112.162" cy="177.737" r="5.781"/>
	<circle fill="#E64626" cx="290.809" cy="179.63" r="4.659"/>
	<circle fill="#E64626" cx="419.289" cy="173.764" r="5.565"/>
</g>
</svg>
